<?xml version="1.0" encoding="UTF-8"?>
<svg xmlns="http://www.w3.org/2000/svg" width="800.000" height="600.000" viewBox="0.0 0.0 800.000 600.000" version="1.1">
  <title>Produce by Acme CAD Converter</title>
  <desc>Produce by Acme CAD Converter</desc>
<polyline points="342.61,306.73 461.99,306.73 461.99,432.07 342.61,432.07 342.61,306.73" style="fill:none;stroke:black;stroke-width:0.5"/>
<polyline points="247.11,297.77 247.31,289.91 247.9,282.07 248.9,274.27 250.28,266.53 252.06,258.87 254.22,251.31 256.77,243.87 259.68,236.57 262.97,229.43 266.61,222.46 270.6,215.68 274.92,209.12 279.58,202.78 284.55,196.69 289.82,190.85 295.38,185.29 301.21,180.02 307.3,175.05 313.64,170.4 320.21,166.07 326.98,162.08 333.95,158.44 341.1,155.16 348.4,152.24 355.84,149.7 363.4,147.54 371.06,145.76 378.8,144.37 386.6,143.38 394.44,142.78 402.3,142.58 410.16,142.78 418,143.38 425.8,144.37 433.54,145.76 441.2,147.54 448.76,149.7 456.2,152.24 463.5,155.16 470.64,158.44 477.61,162.08 484.39,166.07 490.95,170.4 497.29,175.05 503.38,180.02 509.22,185.29 514.78,190.85 520.05,196.69 525.02,202.78 529.67,209.12 534,215.68 537.99,222.46 541.63,229.43 544.91,236.57 547.83,243.87 550.37,251.31 552.53,258.87 554.31,266.53 555.7,274.27 556.69,282.07 557.29,289.91 557.49,297.77 557.29,305.63 556.69,313.47 555.7,321.27 554.31,329.01 552.53,336.67 550.37,344.23 547.83,351.67 544.91,358.97 541.63,366.12 537.99,373.09 534,379.86 529.67,386.43 525.02,392.76 520.05,398.86 514.78,404.69 509.22,410.25 503.38,415.52 497.29,420.49 490.95,425.15 484.39,429.47 477.61,433.46 470.64,437.1 463.5,440.39 456.2,443.3 448.76,445.84 441.2,448.01 433.54,449.79 425.8,451.17 418,452.17 410.16,452.76 402.3,452.96 394.44,452.76 386.6,452.17 378.8,451.17 371.06,449.79 363.4,448.01 355.84,445.84 348.4,443.3 341.1,440.39 333.95,437.1 326.98,433.46 320.21,429.47 313.64,425.15 307.3,420.49 301.21,415.52 295.38,410.25 289.82,404.69 284.55,398.86 279.58,392.76 274.92,386.43 270.6,379.86 266.61,373.09 262.97,366.12 259.68,358.97 256.77,351.67 254.22,344.23 252.06,336.67 250.28,329.01 248.9,321.27 247.9,313.47 247.31,305.63 247.11,297.77" style="fill:none;stroke:black;stroke-width:0.5"/>
<polyline points="402.3,0 402.3,0 402.3,600" style="fill:none;stroke:black;stroke-width:0.5"/>
<polyline points="324.7,220.18 324.9,214.64 325.49,209.14 326.48,203.68 327.85,198.32 329.59,193.06 331.71,187.94 334.19,182.99 337.02,178.23 340.18,173.68 343.65,169.36 347.43,165.31 351.48,161.54 355.8,158.06 360.35,154.9 365.11,152.07 370.06,149.6 375.18,147.48 380.44,145.73 385.8,144.36 391.25,143.37 396.76,142.78 402.3,142.58 407.83,142.78 413.34,143.37 418.79,144.36 424.16,145.73 429.41,147.48 434.53,149.6 439.48,152.07 444.25,154.9 448.8,158.06 453.11,161.54 457.16,165.31 460.94,169.36 464.41,173.68 467.57,178.23 470.4,182.99 472.88,187.94 475,193.06 476.75,198.32 478.12,203.68 479.1,209.14 479.69,214.64 479.89,220.18 479.69,225.71 479.1,231.22 478.12,236.67 476.75,242.04 475,247.29 472.88,252.41 470.4,257.37 467.57,262.13 464.41,266.68 460.94,270.99 457.16,275.05 453.11,278.82 448.8,282.3 444.25,285.45 439.48,288.28 434.53,290.76 429.41,292.88 424.16,294.63 418.79,296 413.34,296.98 407.83,297.58 402.3,297.77 396.76,297.58 391.25,296.98 385.8,296 380.44,294.63 375.18,292.88 370.06,290.76 365.11,288.28 360.35,285.45 355.8,282.3 351.48,278.82 347.43,275.05 343.65,270.99 340.18,266.68 337.02,262.13 334.19,257.37 331.71,252.41 329.59,247.29 327.85,242.04 326.48,236.67 325.49,231.22 324.9,225.71 324.7,220.18" style="fill:none;stroke:black;stroke-width:0.5"/>
<polyline points="336.64,220.18 336.84,215.09 337.43,210.03 338.41,205.04 339.78,200.13 341.52,195.35 343.62,190.71 346.08,186.25 348.88,182 352,177.97 355.42,174.2 359.13,170.71 363.09,167.51 367.29,164.63 371.7,162.09 376.29,159.89 381.04,158.06 385.92,156.6 390.9,155.52 395.94,154.83 401.02,154.53 406.11,154.63 411.18,155.13 416.2,156.01 421.13,157.28 425.95,158.93 430.62,160.94 435.13,163.32 439.43,166.03 443.52,169.07 447.35,172.42 450.92,176.06 454.19,179.96 457.15,184.1 459.78,188.46 462.07,193.01 463.99,197.72 465.55,202.57 466.72,207.53 467.51,212.56 467.9,217.63 467.9,222.72 467.51,227.8 466.72,232.83 465.55,237.79 463.99,242.63 462.07,247.35 459.78,251.9 457.15,256.26 454.19,260.4 450.92,264.3 447.35,267.94 443.52,271.28 439.43,274.32 435.13,277.04 430.62,279.41 425.95,281.43 421.13,283.08 416.2,284.35 411.18,285.23 406.11,285.72 401.02,285.82 395.94,285.53 390.9,284.84 385.92,283.76 381.04,282.3 376.29,280.47 371.7,278.27 367.29,275.72 363.09,272.84 359.13,269.65 355.42,266.15 352,262.38 348.88,258.36 346.08,254.1 343.62,249.64 341.52,245.01 339.78,240.22 338.41,235.32 337.43,230.32 336.84,225.27 336.64,220.18" style="fill:none;stroke:black;stroke-width:0.5"/>
</svg>
